<?xml version="1.0" standalone="no"?>
<!DOCTYPE svg PUBLIC "-//W3C//DTD SVG 20010904//EN"
 "http://www.w3.org/TR/2001/REC-SVG-20010904/DTD/svg10.dtd">
<svg version="1.0" xmlns="http://www.w3.org/2000/svg"
 width="652.000000pt" height="652.000000pt" viewBox="0 0 652.000000 652.000000"
 preserveAspectRatio="xMidYMid meet">
<metadata>
Created by potrace 1.14, written by Peter Selinger 2001-2017
</metadata>
<g transform="translate(0.000000,652.000000) scale(0.100000,-0.100000)"
fill="#000000" stroke="none">
<path d="M3530 5863 c-40 -17 -60 -62 -60 -137 0 -30 -3 -68 -6 -85 l-6 -31
-77 0 c-98 0 -359 -26 -442 -44 -138 -31 -279 -72 -349 -103 -19 -8 -51 -22
-70 -30 -113 -47 -328 -169 -368 -209 -7 -8 -17 -14 -21 -14 -4 0 -16 -8 -27
-17 -10 -10 -37 -31 -59 -47 -81 -59 -311 -299 -375 -391 -52 -75 -132 -200
-137 -213 -4 -10 -9 -19 -13 -22 -6 -5 -74 -142 -109 -221 -40 -90 -80 -225
-122 -414 -8 -33 -14 -94 -14 -136 0 -70 2 -79 25 -98 49 -40 106 -22 197 65
27 26 144 74 208 85 82 14 211 7 278 -16 99 -33 194 -105 291 -219 33 -40 43
-46 76 -46 27 0 45 8 66 28 66 62 137 108 214 139 14 6 38 16 53 22 42 17 223
14 277 -5 57 -19 134 -57 138 -66 2 -5 10 -8 17 -8 7 0 44 -30 80 -67 l67 -67
-5 -91 c-6 -98 -31 -392 -47 -550 -17 -170 -30 -303 -45 -485 -8 -96 -20 -224
-25 -285 -6 -60 -15 -153 -20 -205 -5 -52 -12 -129 -15 -170 -4 -41 -8 -85
-11 -97 l-4 -22 -409 -3 c-225 -2 -413 -7 -418 -11 -9 -10 -11 -302 -2 -311 3
-3 30 -9 59 -13 51 -8 55 -10 63 -43 27 -115 44 -192 62 -280 8 -41 20 -95 25
-120 16 -71 29 -139 42 -215 14 -84 36 -127 69 -136 13 -4 227 -7 475 -8 437
0 452 0 472 20 12 11 24 32 28 47 3 15 10 41 14 57 5 17 11 53 15 80 3 28 10
66 15 85 16 59 48 210 65 300 22 118 37 183 47 196 5 6 29 14 54 17 67 7 73
21 74 160 0 113 -8 152 -34 169 -6 4 -132 8 -280 8 l-269 0 7 58 c8 63 19 171
41 427 14 163 24 273 45 490 6 55 17 179 25 275 8 96 19 222 25 280 6 58 14
152 19 210 9 116 27 164 66 182 14 6 25 15 25 20 0 4 7 8 15 8 8 0 15 3 15 8
0 9 31 22 125 57 56 20 89 25 162 25 51 0 102 -4 115 -9 160 -62 220 -105 356
-254 19 -21 43 -37 54 -37 19 0 71 30 93 54 71 78 260 156 376 156 85 0 264
-53 277 -82 2 -5 10 -8 17 -8 7 0 57 -43 110 -95 100 -98 117 -107 168 -84 47
21 52 48 52 248 -1 176 -9 261 -41 411 -26 128 -42 186 -63 245 -12 33 -28 78
-35 100 -13 40 -67 162 -88 199 -29 53 -62 113 -72 131 -6 11 -14 22 -17 25
-3 3 -19 25 -34 50 -15 25 -31 47 -34 50 -3 3 -19 23 -36 45 -64 86 -195 223
-285 297 -71 58 -193 148 -202 148 -4 0 -17 8 -27 17 -56 47 -274 155 -451
222 -47 18 -92 36 -100 41 -9 4 -31 11 -50 15 -19 4 -55 14 -80 22 -42 14
-106 31 -172 47 -26 6 -28 10 -27 59 0 28 4 73 8 98 12 71 -12 115 -66 124
-15 2 -35 1 -43 -2z"/>
</g>
</svg>
